<svg xmlns="http://www.w3.org/2000/svg"><style>:root svg:not(:target){display:none}</style><svg viewBox="0 0 12 12" style="enable-background:new 0 0 12 12" id="arrow-left"><path d="M12 12 0 6l12-6z"></path></svg><svg viewBox="0 0 22.1 21.2" style="enable-background:new 0 0 22.1 21.2" id="beard"><path d="M21.8 0h-.1c-1 3.3-1.3 7.3-4 8.8-.5-1.4-1.8-2.1-3.2-2.7-.9-.4-1.9-1.1-2.8-1.1-.2 0-.4 0-.6.1-.3-.1-.5-.1-.7-.1-.9 0-1.9.7-2.8 1.1-1.5.7-2.7 1.3-3.2 2.7-2.8-1.5-3-5.6-4-8.8H.3C.1.3.1.7 0 1c0 .8.2 9.2.8 12.2.5 2.7 2.6 4.6 4.6 5.9 1.4.9 3.6 2.1 5.6 2.1 1.9 0 4.2-1.2 5.6-2.1 2-1.3 4.1-3.2 4.6-5.9.6-3 .8-11.4.8-12.2 0-.3-.1-.7-.2-1zm-6 12c-.1.7-.7 1.5-1.4 1.5-1.3.1-1.9-1.9-3.4-1.9-1.4 0-2.1 1.9-3.4 1.9-.7 0-1.3-.8-1.4-1.5-.1-.8.3-2 .7-2.4.5-.5 1.2-.4 2-.5.9-.1 1.7-.4 2.1-.8.5.5 1.2.7 2.1.8.8.1 1.5.1 2 .5.5.5.9 1.6.7 2.4z" style="fill:#826550"></path></svg><svg viewBox="0 0 21.7 16.1" style="enable-background:new 0 0 21.7 16.1" id="checkbox"><path d="M21.4.3c-.4-.4-1-.4-1.4 0L6.6 13.7 1.7 8.8c-.4-.4-1-.4-1.4 0-.4.4-.4 1 0 1.4l5.6 5.6c.2.2.5.3.7.3.3 0 .5-.1.7-.3L21.4 1.7c.4-.4.4-1 0-1.4z"></path></svg><svg id="github" viewBox="0 0 500 500"><path d="M250.2 4.2C111.8 4.2 0 116.8 0 256.2 0 367.7 71.7 462 171.1 495.4c12.4 2.5 17-5.4 17-12.1 0-5.8-.4-25.9-.4-46.7-69.6 15-84.1-30-84.1-30-11.2-29.2-27.8-36.7-27.8-36.7-22.8-15.4 1.7-15.4 1.7-15.4 25.3 1.7 38.5 25.9 38.5 25.9 22.4 38.4 58.4 27.5 72.9 20.9 2.1-16.3 8.7-27.5 15.7-33.8-55.5-5.8-113.9-27.5-113.9-124.4 0-27.5 9.9-50.1 25.7-67.6-2.5-6.3-11.2-32.1 2.5-66.8 0 0 21.1-6.7 68.8 25.9 20.4-5.5 41.4-8.3 62.6-8.3 21.1 0 42.7 2.9 62.5 8.3 47.6-32.6 68.8-25.9 68.8-25.9 13.7 34.6 5 60.5 2.5 66.8 16.2 17.5 25.7 40.1 25.7 67.6 0 96.8-58.4 118.1-114.3 124.4 9.1 7.9 17 22.9 17 46.7 0 33.8-.4 60.9-.4 69.3 0 6.7 4.6 14.6 17 12.1C428.3 462 500 367.7 500 256.2c.4-139.4-111.9-252-249.8-252z"></path></svg><svg id="lock" viewBox="0 0 15 17"><defs><filter id="lock_0" x="719" y="388" width="15" height="17" filterUnits="userSpaceOnUse"><feFlood result="flood"></feFlood><feComposite result="composite" operator="in" in2="SourceGraphic"></feComposite><feBlend result="blend" in2="SourceGraphic"></feBlend></filter></defs><path data-name="Locked 2" d="M732 393.451a5.5 5.5 0 0 0-5.611-5.451 5.365 5.365 0 0 0-5.453 5.452h-.63a1 1 0 0 0-1.258 1.079v9.05a1.048 1.048 0 0 0 1.139 1.419h12.568a1.382 1.382 0 0 0 1.245-1.42v-8.61a1.343 1.343 0 0 0-1.247-1.532Zm-1.187-.013a4.284 4.284 0 0 0-8.564 0h8.564Zm-4.645 2.036a2.009 2.009 0 0 1 1.962 2.053 2.054 2.054 0 0 1-1.263 1.919c-.1.041.661 3.541.661 3.541l-2.64.019a20.682 20.682 0 0 0 .647-3.535 2.05 2.05 0 0 1-1.328-1.944 2.009 2.009 0 0 1 1.965-2.053Z" transform="translate(-719 -388)" style="fill:#d1d1d1;fill-rule:evenodd;filter:url(#lock_0)"></path></svg><svg viewBox="0 0 16 16" style="enable-background:new 0 0 16 16" id="login"><style>.st0{fill:#fff}</style><path class="st0" d="M0 7h7V4.1L11 8l-4 3.9V9.1L0 9z"></path><path class="st0" d="M7 0v2h7v12H7v2h9V0z"></path></svg><svg viewBox="0 0 45 12.9" style="enable-background:new 0 0 45 12.9" id="mustaches"><path d="M22.5 8.2c1.2 1.7 3.6 4.4 8.8 4.7 7.1.3 13.7-5.2 13.7-7.3-2.8 2.5-7.4 2.7-9.9 1.7C31.3 5.8 32 2.8 29.2.9c-1.6-1.1-3.8-1.2-5.7 0-.3.2-.7.5-1 .8-.3-.3-.7-.6-1-.8-1.9-1.2-4.1-1.1-5.7 0-2.8 2-2.1 4.9-5.9 6.4-2.5 1-7.1.8-9.9-1.7 0 2.1 6.5 7.6 13.7 7.3 5.2-.2 7.6-3 8.8-4.7z" style="fill:#826550"></path></svg><svg viewBox="0 0 23 20" style="enable-background:new 0 0 23 20" id="scissors"><path d="M8 4c0-2.2-1.8-4-4-4S0 1.8 0 4s1.8 4 4 4c.6 0 1.1-.1 1.6-.4L8 10l-2.4 2.4c-.5-.3-1-.4-1.6-.4-2.2 0-4 1.8-4 4s1.8 4 4 4 4-1.8 4-4c0-.6-.1-1.1-.4-1.6L10 12l7 7h4L7.6 5.6c.3-.5.4-1 .4-1.6zM4 6c-1.1 0-2-.9-2-2s.9-2 2-2 2 .9 2 2-.9 2-2 2zm0 12c-1.1 0-2-.9-2-2s.9-2 2-2 2 .9 2 2-.9 2-2 2zm6-8.5c.3 0 .5.2.5.5s-.2.5-.5.5-.5-.2-.5-.5.2-.5.5-.5zM21 1h-4l-6 6 2 2 8-8z" style="fill:#826550" transform="translate(.5)"></path></svg><svg id="telegram" viewBox="0 0 500 500"><path d="M34.4 221.2c134.2-58.5 223.7-97 268.5-115.7 127.9-53.2 154.4-62.4 171.7-62.7 3.8-.1 12.3.9 17.8 5.4 4.7 3.8 5.9 8.9 6.6 12.5.6 3.6 1.4 11.7.8 18.1-6.9 72.8-36.9 249.5-52.2 331-6.5 34.5-19.2 46.1-31.5 47.2-26.7 2.5-47-17.7-72.9-34.6-40.5-26.6-63.4-43.1-102.7-69-45.5-30-16-46.4 9.9-73.3 6.8-7 124.6-114.2 126.9-123.9.3-1.2.5-5.7-2.1-8.1-2.7-2.4-6.7-1.6-9.5-.9-4.1.9-68.8 43.7-194.2 128.4-18.4 12.6-35 18.8-49.9 18.4-16.4-.4-48.1-9.3-71.6-16.9-29-9.6-51.9-14.5-49.9-30.5 1.1-8.3 12.5-16.7 34.3-25.4z"></path></svg><svg viewBox="0 0 15 15" style="enable-background:new 0 0 15 15" id="user"><path d="M6.8.2c-.3 0-.5.1-.7.3h-.8c-.7.3-1.1.9-1.2 1.7v2.1c.1.4-.2.4-.2.4-.5 0-.3 1.5-.3 1.5 0 .4.3.8.8.8.3.6.7 1.2 1.3 1.5v1.1c-.1 0 .3 1.2-2.1 1.5S.8 12.2.4 12.6 0 15 0 15h15s-.1-2-.5-2.4-.9-1.2-3.2-1.5C9 10.8 9.4 9.6 9.4 9.5v-.9c.5-.4.9-1 1.1-1.6.4-.1.7-.4.9-.8 0 0 .2-1.6-.4-1.6 0 0-.3.1-.2-.3.1-.6.1-1.2 0-1.9 0-.4 0-1.5-.8-1.7-.3 0-.6-.1-.9 0-.3 0-.7-.7-1.2-.7L6.8.2z" style="fill-rule:evenodd;clip-rule:evenodd"></path></svg><svg id="vk" viewBox="0 0 500 500"><path d="M285.2 406V294.6c61.5 6.2 107.4 52.1 126.1 111.4H500c-24.1-88.7-86.4-137.7-125.2-156.4 38.8-23.2 93.6-79.3 106.5-155.5h-80.6c-17 61.9-67.3 118.1-115.4 123.4V94h-82v216.1c-50-12.3-115.1-73-117.7-216.1H0c4 194.8 106.5 312 275.4 312h9.8z"></path></svg><svg id="youtube" viewBox="0 0 500 500"><path d="M489.6 129.7c-5.8-21.5-22.7-38.5-44.2-44.2C406.4 75 250 75 250 75S93.6 75 54.7 85.4c-21.5 5.8-38.5 22.7-44.2 44.2C0 168.6 0 250 0 250s0 81.4 10.4 120.3c5.8 21.5 22.7 38.5 44.2 44.2C93.6 425 250 425 250 425s156.4 0 195.3-10.4c21.5-5.8 38.5-22.7 44.2-44.2C500 331.4 500 250 500 250s0-81.4-10.4-120.3zM200 325V175l129.9 75L200 325z"></path></svg></svg>