<svg xmlns="http://www.w3.org/2000/svg"><style>:root svg:not(:target){display:none}</style><svg viewBox="0 0 12 12" style="enable-background:new 0 0 12 12" id="arrow-left"><path d="M12 12 0 6l12-6z"></path></svg><svg viewBox="0 0 22.1 21.2" style="enable-background:new 0 0 22.1 21.2" id="beard"><path d="M21.8 0h-.1c-1 3.3-1.3 7.3-4 8.8-.5-1.4-1.8-2.1-3.2-2.7-.9-.4-1.9-1.1-2.8-1.1-.2 0-.4 0-.6.1-.3-.1-.5-.1-.7-.1-.9 0-1.9.7-2.8 1.1-1.5.7-2.7 1.3-3.2 2.7-2.8-1.5-3-5.6-4-8.8H.3C.1.3.1.7 0 1c0 .8.2 9.2.8 12.2.5 2.7 2.6 4.6 4.6 5.9 1.4.9 3.6 2.1 5.6 2.1 1.9 0 4.2-1.2 5.6-2.1 2-1.3 4.1-3.2 4.6-5.9.6-3 .8-11.4.8-12.2 0-.3-.1-.7-.2-1zm-6 12c-.1.7-.7 1.5-1.4 1.5-1.3.1-1.9-1.9-3.4-1.9-1.4 0-2.1 1.9-3.4 1.9-.7 0-1.3-.8-1.4-1.5-.1-.8.3-2 .7-2.4.5-.5 1.2-.4 2-.5.9-.1 1.7-.4 2.1-.8.5.5 1.2.7 2.1.8.8.1 1.5.1 2 .5.5.5.9 1.6.7 2.4z" style="fill:#826550"></path></svg><svg viewBox="0 0 21.7 16.1" style="enable-background:new 0 0 21.7 16.1" id="checkbox"><path d="M21.4.3c-.4-.4-1-.4-1.4 0L6.6 13.7 1.7 8.8c-.4-.4-1-.4-1.4 0-.4.4-.4 1 0 1.4l5.6 5.6c.2.2.5.3.7.3.3 0 .5-.1.7-.3L21.4 1.7c.4-.4.4-1 0-1.4z"></path></svg><svg viewBox="0 0 10.2 21.7" id="facebook"><path d="M3.3 1.1A4.8 4.8 0 0 1 6.5 0h3.6v3.8H7.8a1 1 0 0 0-1 .8v2.6H10c0 1.2-.2 2.4-.4 3.7h-3v10.8H2.2V11H0V7.2h2.2V3.7A3.8 3.8 0 0 1 3.3 1z" fill="#fff"></path></svg><svg id="instagram" viewBox="0 0 20 20"><path d="M18 0H2a2 2 0 0 0-2 2v16a2 2 0 0 0 2 2h16a2 2 0 0 0 2-2V2a2 2 0 0 0-2-2zm-8 6a4 4 0 1 1-4 4 4 4 0 0 1 4-4zM2.5 18a.47.47 0 0 1-.5-.5V9h2.1a3.4 3.4 0 0 0-.1 1 6 6 0 1 0 12 0 3.4 3.4 0 0 0-.1-1H18v8.5a.47.47 0 0 1-.5.5zM18 4.5a.47.47 0 0 1-.5.5h-2a.47.47 0 0 1-.5-.5v-2a.47.47 0 0 1 .5-.5h2a.47.47 0 0 1 .5.5z" fill="#fff"></path></svg><svg id="lock" viewBox="0 0 15 17"><defs><filter id="lock_0" x="719" y="388" width="15" height="17" filterUnits="userSpaceOnUse"><feFlood result="flood"></feFlood><feComposite result="composite" operator="in" in2="SourceGraphic"></feComposite><feBlend result="blend" in2="SourceGraphic"></feBlend></filter></defs><path data-name="Locked 2" d="M732 393.451a5.5 5.5 0 0 0-5.611-5.451 5.365 5.365 0 0 0-5.453 5.452h-.63a1 1 0 0 0-1.258 1.079v9.05a1.048 1.048 0 0 0 1.139 1.419h12.568a1.382 1.382 0 0 0 1.245-1.42v-8.61a1.343 1.343 0 0 0-1.247-1.532Zm-1.187-.013a4.284 4.284 0 0 0-8.564 0h8.564Zm-4.645 2.036a2.009 2.009 0 0 1 1.962 2.053 2.054 2.054 0 0 1-1.263 1.919c-.1.041.661 3.541.661 3.541l-2.64.019a20.682 20.682 0 0 0 .647-3.535 2.05 2.05 0 0 1-1.328-1.944 2.009 2.009 0 0 1 1.965-2.053Z" transform="translate(-719 -388)" style="fill:#d1d1d1;fill-rule:evenodd;filter:url(#lock_0)"></path></svg><svg id="login" viewBox="0 0 16 16" style="enable-background:new 0 0 16 16"><style>.st0{fill:#fff}</style><path class="st0" d="M0 7h7V4.1L11 8l-4 3.9V9.1L0 9z"></path><path class="st0" d="M7 0v2h7v12H7v2h9V0z"></path></svg><svg viewBox="0 0 45 12.9" style="enable-background:new 0 0 45 12.9" id="mustaches"><path d="M22.5 8.2c1.2 1.7 3.6 4.4 8.8 4.7 7.1.3 13.7-5.2 13.7-7.3-2.8 2.5-7.4 2.7-9.9 1.7C31.3 5.8 32 2.8 29.2.9c-1.6-1.1-3.8-1.2-5.7 0-.3.2-.7.5-1 .8-.3-.3-.7-.6-1-.8-1.9-1.2-4.1-1.1-5.7 0-2.8 2-2.1 4.9-5.9 6.4-2.5 1-7.1.8-9.9-1.7 0 2.1 6.5 7.6 13.7 7.3 5.2-.2 7.6-3 8.8-4.7z" style="fill:#826550"></path></svg><svg viewBox="0 0 23 20" style="enable-background:new 0 0 23 20" id="scissors"><path d="M8 4c0-2.2-1.8-4-4-4S0 1.8 0 4s1.8 4 4 4c.6 0 1.1-.1 1.6-.4L8 10l-2.4 2.4c-.5-.3-1-.4-1.6-.4-2.2 0-4 1.8-4 4s1.8 4 4 4 4-1.8 4-4c0-.6-.1-1.1-.4-1.6L10 12l7 7h4L7.6 5.6c.3-.5.4-1 .4-1.6zM4 6c-1.1 0-2-.9-2-2s.9-2 2-2 2 .9 2 2-.9 2-2 2zm0 12c-1.1 0-2-.9-2-2s.9-2 2-2 2 .9 2 2-.9 2-2 2zm6-8.5c.3 0 .5.2.5.5s-.2.5-.5.5-.5-.2-.5-.5.2-.5.5-.5zM21 1h-4l-6 6 2 2 8-8z" style="fill:#826550" transform="translate(.5)"></path></svg><svg viewBox="0 0 15 15" style="enable-background:new 0 0 15 15" id="user"><path d="M6.8.2c-.3 0-.5.1-.7.3h-.8c-.7.3-1.1.9-1.2 1.7v2.1c.1.4-.2.4-.2.4-.5 0-.3 1.5-.3 1.5 0 .4.3.8.8.8.3.6.7 1.2 1.3 1.5v1.1c-.1 0 .3 1.2-2.1 1.5S.8 12.2.4 12.6 0 15 0 15h15s-.1-2-.5-2.4-.9-1.2-3.2-1.5C9 10.8 9.4 9.6 9.4 9.5v-.9c.5-.4.9-1 1.1-1.6.4-.1.7-.4.9-.8 0 0 .2-1.6-.4-1.6 0 0-.3.1-.2-.3.1-.6.1-1.2 0-1.9 0-.4 0-1.5-.8-1.7-.3 0-.6-.1-.9 0-.3 0-.7-.7-1.2-.7L6.8.2z" style="fill-rule:evenodd;clip-rule:evenodd"></path></svg><svg viewBox="0 0 26.14 14.91" id="vk"><path d="m26 13.47-.09-.17a13.55 13.55 0 0 0-2.6-3q-.87-.83-1.1-1.12A1 1 0 0 1 22 8a10.27 10.27 0 0 1 1.22-1.78l.88-1.16q2.35-3.13 2-4L26 .94a.8.8 0 0 0-.4-.22 2.14 2.14 0 0 0-.87 0h-3.92a.51.51 0 0 0-.27 0h-.3a.6.6 0 0 0-.15.14.93.93 0 0 0-.14.24 22.22 22.22 0 0 1-1.46 3.06q-.5.84-.93 1.46a7 7 0 0 1-.71.91 4.94 4.94 0 0 1-.52.47q-.23.18-.35.15l-.23-.05a.9.9 0 0 1-.31-.33 1.49 1.49 0 0 1-.16-.53V1.6a3.14 3.14 0 0 0 0-.62 2.12 2.12 0 0 0-.14-.44.73.73 0 0 0-.28-.33 1.57 1.57 0 0 0-.46-.18A9 9 0 0 0 12.57 0a8.93 8.93 0 0 0-3.25.33 1.83 1.83 0 0 0-.52.41q-.25.3-.07.33a1.67 1.67 0 0 1 1.16.59l.08.16a2.6 2.6 0 0 1 .19.63 6.32 6.32 0 0 1 .12 1 10.59 10.59 0 0 1 0 1.7q-.07.71-.13 1.1a2.21 2.21 0 0 1-.18.64 2.69 2.69 0 0 1-.16.3l-.07.07a1 1 0 0 1-.37.07.86.86 0 0 1-.46-.19 3.27 3.27 0 0 1-.56-.52 7 7 0 0 1-.66-.93q-.37-.6-.76-1.42l-.22-.39q-.2-.38-.56-1.11t-.62-1.43A.9.9 0 0 0 5.2.9h-.07a.93.93 0 0 0-.22-.16A1.44 1.44 0 0 0 4.6.65L.87.68A1 1 0 0 0 .1.94L0 1a.44.44 0 0 0 0 .22 1.08 1.08 0 0 0 .08.37Q.9 3.53 1.86 5.31t1.66 2.87Q4.23 9.27 5 10.24t1 1.24l.37.41.34.33a8.06 8.06 0 0 0 1 .78 16.34 16.34 0 0 0 1.4.9 7.6 7.6 0 0 0 1.79.72 6.19 6.19 0 0 0 2 .22h1.57a1.08 1.08 0 0 0 .72-.3l.05-.07a.9.9 0 0 0 .1-.25 1.38 1.38 0 0 0 0-.37 4.48 4.48 0 0 1 .09-1.05 2.77 2.77 0 0 1 .23-.71 1.74 1.74 0 0 1 .29-.4 1.19 1.19 0 0 1 .23-.2h.11a.86.86 0 0 1 .77.21 4.52 4.52 0 0 1 .83.79q.39.47.93 1.05a6.41 6.41 0 0 0 1 .87l.27.16a3.31 3.31 0 0 0 .71.3 1.53 1.53 0 0 0 .76.07l3.48-.05a1.58 1.58 0 0 0 .8-.17.68.68 0 0 0 .34-.37 1.06 1.06 0 0 0 0-.46 1.71 1.71 0 0 0-.1-.36z" fill="#fff"></path></svg></svg>